<svg width="97" height="97" viewBox="0 0 96 96" fill="none" xmlns="http://www.w3.org/2000/svg">
<g filter="url(#filter0_d_80_17)">
<rect x="17" width="65" height="65" rx="12" fill="#2BE3A0"/>
</g>
<path fill-rule="evenodd" clip-rule="evenodd" d="M31 45.5271H67.9904V18.625H31V45.5271ZM36.0441 40.4829H62.9462V23.6691H36.0441V40.4829Z" fill="white"/>
<path fill-rule="evenodd" clip-rule="evenodd" d="M36.0435 27.875H40.2494V23.6692H36.0435V27.875Z" fill="white"/>
<path fill-rule="evenodd" clip-rule="evenodd" d="M58.75 40.4831H62.9462V36.2869H58.75V40.4831Z" fill="white"/>
<path fill-rule="evenodd" clip-rule="evenodd" d="M49.4943 34.5981C48.1038 34.5981 46.9722 33.4665 46.9722 32.076C46.9722 30.6855 48.1038 29.554 49.4943 29.554C50.8848 29.554 52.0164 30.6855 52.0164 32.076C52.0164 33.4665 50.8848 34.5981 49.4943 34.5981Z" fill="white"/>
<path fill-rule="evenodd" clip-rule="evenodd" d="M49.4946 27.8027C47.1343 27.8027 45.2213 29.7158 45.2213 32.076C45.2213 34.4363 47.1343 36.3493 49.4946 36.3493C51.8549 36.3493 53.7679 34.4363 53.7679 32.076C53.7679 29.7158 51.8549 27.8027 49.4946 27.8027Z" fill="white"/>
<defs>
<filter id="filter0_d_80_17" x="0" y="0" width="98" height="90" filterUnits="userSpaceOnUse" color-interpolation-filters="sRGB">
<feFlood flood-opacity="0" result="BackgroundImageFix"/>
<feColorMatrix in="SourceAlpha" type="matrix" values="0 0 0 0 0 0 0 0 0 0 0 0 0 0 0 0 0 0 127 0" result="hardAlpha"/>
<feOffset dy="17"/>
<feGaussianBlur stdDeviation="8.5"/>
<feComposite in2="hardAlpha" operator="out"/>
<feColorMatrix type="matrix" values="0 0 0 0 0.168627 0 0 0 0 0.890196 0 0 0 0 0.627451 0 0 0 0.28 0"/>
<feBlend mode="normal" in2="BackgroundImageFix" result="effect1_dropShadow_80_17"/>
<feBlend mode="normal" in="SourceGraphic" in2="effect1_dropShadow_80_17" result="shape"/>
</filter>
</defs>
</svg>
