<svg width="60" height="60" viewBox="0 0 66 66" fill="none" xmlns="http://www.w3.org/2000/svg">
<circle cx="33" cy="33" r="33" fill="#FEFFFE"/>
<path fill-rule="evenodd" clip-rule="evenodd" d="M17.6786 40.5382C19.9847 24.7778 21.6515 17.8651 24.4127 16.0979C24.4922 17.7493 25.3212 19.1654 28.2904 20.5786C26.0349 23.7176 26.4363 27.6913 28.2404 31.2981C29.1628 32.1753 30.0805 33.0568 30.8684 34.0494C31.4657 34.8251 32.2516 35.3128 33.2107 35.5359C34.0589 35.3497 34.8137 34.9302 35.4959 34.3352C36.3465 33.3404 37.2352 32.4144 38.181 31.591C39.2277 30.1393 39.8192 27.9737 39.7235 24.7306C39.7296 23.1773 39.2604 21.7103 38.0096 20.3856C40.1505 19.5332 41.8121 18.3431 41.8944 16.0407C45.1837 18.7753 46.8894 28.3773 47.893 41.0241L48.3214 41.7674C40.8456 58.2558 24.0602 57.0404 17.929 40.8497C17.898 40.7679 17.7143 40.6185 17.6786 40.5382ZM47.5392 41.1993L45.6948 41.1986C40.5181 54.0434 24.0666 52.4885 20.3563 40.7595L18.703 40.692C22.3794 51.6379 31.0151 52.8288 33.0904 52.7945C35.5763 52.7534 44.2068 51.6607 47.5392 41.1993ZM45.1611 41.0707L45.1161 40.9706L43.0522 26.4746L44.0948 40.9706L43.6953 41.1421C38.4736 48.2649 28.976 48.9339 23.3342 40.9706L21.7358 40.9178L22.4927 26.4746L20.6218 40.2701L20.8381 40.9706C23.2862 47.2572 28.8709 49.6328 32.9903 49.6215C37.2036 49.6101 42.5572 47.4015 45.1611 41.0707ZM42.9473 40.9706H41.6311L40.5956 32.0714L40.8527 40.9706H40.546C36.3673 45.4618 30.3883 45.828 26.1192 40.9811L25.4778 40.9823L25.8348 32.0714L24.6494 40.9706L23.9517 40.9851C25.6 43.1268 29.3993 46.174 33.5188 46.1628C37.7321 46.1512 41.7859 42.9136 42.9473 40.9706ZM39.6267 40.9706L37.7824 40.9699C34.8235 42.3158 31.9847 42.2698 29.2543 40.9667L27.0867 40.9706C28.735 43.1123 31.3292 43.8817 33.4046 43.8473C35.8906 43.8062 38.4367 42.542 39.6267 40.9706ZM29.5794 39.1339C32.1507 40.1891 34.9961 40.1834 37.846 39.0994L37.8301 40.2951C35.3667 41.5228 32.4047 41.577 29.5794 40.556V39.1339ZM29.7758 37.1794C32.7547 37.3561 35.4235 36.5834 37.7739 34.8354L37.723 38.3799C35.2596 39.6076 32.601 39.6225 29.7758 38.6015V37.1794Z" fill="url(#paint0_linear_48_336)"/>
<path fill-rule="evenodd" clip-rule="evenodd" d="M33.3116 15.0303C32.9651 13.644 31.9458 12.7505 30.3044 12.2789C32.2345 11.6341 34.2348 11.6041 36.3173 12.2932C34.5333 12.7871 33.6601 13.6765 33.3116 15.0303Z" fill="#E9BC47"/>
<path fill-rule="evenodd" clip-rule="evenodd" d="M26.4974 17.2882C23.7895 12.985 33.0388 11.4597 30.9903 16.1438C29.6042 18.3803 31.3937 19.3838 33.3109 20.0896V20.063C35.2281 19.3573 37.0176 18.3538 35.6315 16.1173C33.583 11.4331 42.8323 12.9585 40.1244 17.2616C39.53 18.0496 38.3618 18.7718 36.6969 19.3645C35.7526 19.7007 32.2683 20.4153 34.647 21.5209C34.2722 21.556 33.6667 21.5145 33.3109 20.9777V21.0043C32.955 21.5411 32.3496 21.5826 31.9747 21.5475C34.3535 20.4419 30.8691 19.7272 29.9249 19.3911C28.26 18.7983 27.0917 18.0761 26.4974 17.2882Z" fill="#E9BC47"/>
<path fill-rule="evenodd" clip-rule="evenodd" d="M32.2477 17.2668C32.0243 17.178 31.9295 17.2009 31.9156 17.0739L31.8264 15.9554C31.7852 15.8532 31.6926 15.8445 31.6228 15.9519C31.4299 16.3151 31.3302 16.725 31.3658 17.2025C31.6129 17.9426 32.7597 17.504 32.2477 17.2668Z" fill="#E9BC47"/>
<path fill-rule="evenodd" clip-rule="evenodd" d="M34.4397 17.2668C34.6631 17.178 34.758 17.2009 34.7718 17.0739L34.8611 15.9554C34.9022 15.8532 34.9949 15.8445 35.0646 15.9519C35.2575 16.3151 35.3572 16.725 35.3217 17.2025C35.0746 17.9426 33.9277 17.504 34.4397 17.2668Z" fill="#E9BC47"/>
<path fill-rule="evenodd" clip-rule="evenodd" d="M28.258 23.0344C27.9258 23.1369 27.6856 23.2988 27.5153 23.5061C28.2129 23.3561 28.9434 23.241 29.6219 23.6454L31.7715 24.9639C31.8763 24.9977 31.9665 24.9731 32.0428 24.8925C32.0793 24.7682 32.0683 24.6499 32.0285 24.5351C31.2132 23.9401 30.3827 23.4389 29.5291 23.0916C29.0759 22.9052 28.6541 22.8969 28.258 23.0344Z" fill="#E9BC47"/>
<path fill-rule="evenodd" clip-rule="evenodd" d="M28.5854 25.5242L27.8784 24.9597L28.6282 25.2241C29.7805 24.6016 30.7143 25.248 31.5561 25.9173C31.4189 25.4382 31.0602 25.0146 30.542 24.6309C29.8356 24.1156 28.9753 23.979 28.0212 24.0735C27.3316 24.1694 27.124 24.6842 27.2643 25.3241C27.6333 26.0946 28.279 26.6372 29.0995 26.8391C28.9543 26.696 28.8782 26.5582 28.8567 26.4246C28.8163 26.1817 28.8377 25.9864 28.9211 25.8386C29.0395 25.7333 29.1858 25.7462 29.3424 25.8029C29.1956 27.154 30.6213 27.2501 30.8349 26.1817L31.0491 26.3675C31.1525 26.5077 31.1981 26.7323 31.1777 27.0535L31.7204 27.175C31.7131 26.8714 31.673 26.5805 31.5418 26.3246C31.3092 25.9417 31.03 25.5947 30.5492 25.4028C29.7919 25.1427 29.2754 25.1719 28.5854 25.5242ZM30.3421 25.7602C30.5097 25.7602 30.6456 25.8864 30.6456 26.042C30.6456 26.1976 30.5097 26.3237 30.3421 26.3237C30.1744 26.3237 30.0385 26.1976 30.0385 26.042C30.0385 25.8864 30.1744 25.7602 30.3421 25.7602Z" fill="#E9BC47"/>
<path fill-rule="evenodd" clip-rule="evenodd" d="M32.7818 32.0712C32.2276 31.9718 31.6673 31.9896 31.1036 32.0712C31.3866 31.2001 32.5086 30.6466 33.312 31.242V31.2402C34.1152 30.6448 35.2373 31.1983 35.5202 32.0694C34.9565 31.9877 34.3962 31.97 33.8421 32.0694C33.6668 32.1752 33.5068 32.2306 33.312 32.2567C33.117 32.2306 32.9385 32.2022 32.7818 32.0712Z" fill="#E9BC47"/>
<path fill-rule="evenodd" clip-rule="evenodd" d="M33.3122 33.4896C32.2739 33.5001 31.5591 33.0859 31.1302 32.2961C31.6543 32.2349 32.1713 32.2206 32.6764 32.2833C33.1002 32.4352 33.5147 32.4354 33.9189 32.2729C34.4332 32.2094 34.9412 32.1904 35.4364 32.2604C34.9918 33.1192 34.271 33.5073 33.3122 33.4896Z" fill="#E9BC47"/>
<path fill-rule="evenodd" clip-rule="evenodd" d="M32.8798 29.9807C32.8369 29.7295 32.3156 29.8855 32.0336 29.8378C32.186 29.6358 32.388 29.5192 32.712 29.6127C32.8859 29.6698 32.963 29.7807 32.8798 29.9807Z" fill="#E9BC47"/>
<path fill-rule="evenodd" clip-rule="evenodd" d="M33.6658 29.9807C33.7086 29.7295 34.23 29.8855 34.512 29.8378C34.3597 29.6358 34.1576 29.5192 33.8336 29.6127C33.6597 29.6698 33.5826 29.7807 33.6658 29.9807Z" fill="#E9BC47"/>
<path fill-rule="evenodd" clip-rule="evenodd" d="M38.335 22.9055C38.6671 23.008 38.9074 23.1699 39.0777 23.3772C38.3801 23.2272 37.6495 23.1121 36.971 23.5166L34.8215 24.8351C34.7167 24.8688 34.6264 24.8442 34.5502 24.7636C34.5137 24.6393 34.5247 24.521 34.5644 24.4063C35.3798 23.8112 36.2103 23.31 37.0638 22.9627C37.5171 22.7763 37.9389 22.768 38.335 22.9055Z" fill="#E9BC47"/>
<path fill-rule="evenodd" clip-rule="evenodd" d="M38.007 25.3964L38.7139 24.8318L37.9641 25.0962C36.8118 24.4738 35.8781 25.1202 35.0362 25.7894C35.1734 25.3104 35.5322 24.8868 36.0502 24.5031C36.7567 23.9877 37.617 23.8511 38.5711 23.9457C39.2607 24.0415 39.4683 24.5564 39.3281 25.1963C38.959 25.9667 38.3133 26.5094 37.4928 26.7113C37.638 26.5682 37.7141 26.4304 37.7356 26.2968C37.776 26.0538 37.7547 25.8585 37.6713 25.7108C37.5528 25.6055 37.4065 25.6184 37.25 25.675C37.3968 27.0262 35.9711 27.1222 35.7575 26.0538L35.5432 26.2396C35.4399 26.3798 35.3942 26.6044 35.4146 26.9257L34.8719 27.0472C34.8792 26.7435 34.9193 26.4527 35.0505 26.1968C35.2832 25.8139 35.5623 25.4668 36.0431 25.2749C36.8004 25.0148 37.3168 25.0441 38.007 25.3964ZM36.2503 25.6324C36.0826 25.6324 35.9467 25.7585 35.9467 25.9141C35.9467 26.0697 36.0826 26.1958 36.2503 26.1958C36.4179 26.1958 36.5538 26.0697 36.5538 25.9141C36.5538 25.7585 36.4179 25.6324 36.2503 25.6324Z" fill="#E9BC47"/>
<defs>
<linearGradient id="paint0_linear_48_336" x1="48.3214" y1="53.5762" x2="17.6523" y2="16.0621" gradientUnits="userSpaceOnUse">
<stop stop-color="#CA9000"/>
<stop offset="0.0196078" stop-color="#BB7F00"/>
<stop offset="0.0392157" stop-color="#AC6E00"/>
<stop offset="0.0509804" stop-color="#915900"/>
<stop offset="0.121569" stop-color="#B3872C"/>
<stop offset="0.25098" stop-color="#D6B659"/>
<stop offset="0.501961" stop-color="#FFF6AC"/>
<stop offset="0.678431" stop-color="#EBD683"/>
<stop offset="0.74902" stop-color="#D6B659"/>
<stop offset="0.870588" stop-color="#B4882D"/>
<stop offset="0.941176" stop-color="#915900"/>
<stop offset="0.94902" stop-color="#AC6E00"/>
<stop offset="1" stop-color="#CA9000"/>
</linearGradient>
</defs>
</svg>
